<mxfile host="Electron" modified="2024-04-17T18:58:33.865Z" agent="Mozilla/5.0 (Windows NT 10.0; Win64; x64) AppleWebKit/537.36 (KHTML, like Gecko) draw.io/22.1.21 Chrome/120.0.6099.109 Electron/28.1.0 Safari/537.36" etag="IeUteVzh1W6a7U0GRmlR" version="22.1.21" type="device">
  <diagram name="Page-1" id="6f7wbPanEzozHGWUEkWh">
    <mxGraphModel dx="2625" dy="1673" grid="1" gridSize="10" guides="1" tooltips="1" connect="1" arrows="1" fold="1" page="1" pageScale="1" pageWidth="2000" pageHeight="1125" math="0" shadow="0">
      <root>
        <mxCell id="0" />
        <mxCell id="1" parent="0" />
        <mxCell id="1EAk2yCADbOFgd6vNGhv-2" value="" style="group;fontSize=28;strokeWidth=2;" parent="1" vertex="1" connectable="0">
          <mxGeometry x="727" y="63" width="546.23" height="1000" as="geometry" />
        </mxCell>
        <mxCell id="rgDoyKE1JFjaXjuiLnZl-1" value="start" style="ellipse;whiteSpace=wrap;html=1;fontSize=28;strokeWidth=2;" parent="1EAk2yCADbOFgd6vNGhv-2" vertex="1">
          <mxGeometry x="160.3784110535406" width="226.41658031088085" height="150.9433962264151" as="geometry" />
        </mxCell>
        <mxCell id="rgDoyKE1JFjaXjuiLnZl-5" value="area = base * height" style="whiteSpace=wrap;html=1;fontSize=28;strokeWidth=2;" parent="1EAk2yCADbOFgd6vNGhv-2" vertex="1">
          <mxGeometry y="452.8301886792453" width="546.23" height="113.20754716981132" as="geometry" />
        </mxCell>
        <mxCell id="rgDoyKE1JFjaXjuiLnZl-7" value="" style="group;fontSize=28;strokeWidth=2;" parent="1EAk2yCADbOFgd6vNGhv-2" vertex="1" connectable="0">
          <mxGeometry x="71.69858376511226" y="245.28301886792454" width="405.66303972366154" height="113.20754716981132" as="geometry" />
        </mxCell>
        <mxCell id="rgDoyKE1JFjaXjuiLnZl-2" value="&lt;div style=&quot;font-size: 28px;&quot;&gt;base,&amp;nbsp;&lt;span style=&quot;background-color: initial; font-size: 28px;&quot;&gt;height&lt;/span&gt;&lt;/div&gt;" style="shape=parallelogram;perimeter=parallelogramPerimeter;whiteSpace=wrap;html=1;fixedSize=1;fontSize=28;strokeWidth=2;" parent="rgDoyKE1JFjaXjuiLnZl-7" vertex="1">
          <mxGeometry width="405.66303972366154" height="113.20754716981132" as="geometry" />
        </mxCell>
        <mxCell id="rgDoyKE1JFjaXjuiLnZl-4" value="Read" style="rounded=0;whiteSpace=wrap;html=1;fontSize=20;strokeWidth=2;" parent="rgDoyKE1JFjaXjuiLnZl-7" vertex="1">
          <mxGeometry x="40" width="67.55" height="37.74" as="geometry" />
        </mxCell>
        <mxCell id="rgDoyKE1JFjaXjuiLnZl-3" value="" style="edgeStyle=orthogonalEdgeStyle;rounded=0;orthogonalLoop=1;jettySize=auto;html=1;fontSize=28;strokeWidth=2;" parent="1EAk2yCADbOFgd6vNGhv-2" source="rgDoyKE1JFjaXjuiLnZl-1" target="rgDoyKE1JFjaXjuiLnZl-2" edge="1">
          <mxGeometry relative="1" as="geometry" />
        </mxCell>
        <mxCell id="rgDoyKE1JFjaXjuiLnZl-6" value="" style="edgeStyle=orthogonalEdgeStyle;rounded=0;orthogonalLoop=1;jettySize=auto;html=1;fontSize=28;strokeWidth=2;" parent="1EAk2yCADbOFgd6vNGhv-2" source="rgDoyKE1JFjaXjuiLnZl-2" target="rgDoyKE1JFjaXjuiLnZl-5" edge="1">
          <mxGeometry relative="1" as="geometry">
            <Array as="points">
              <mxPoint x="275" y="406" />
              <mxPoint x="275" y="406" />
            </Array>
          </mxGeometry>
        </mxCell>
        <mxCell id="rgDoyKE1JFjaXjuiLnZl-8" value="" style="group;fontSize=28;strokeWidth=2;" parent="1EAk2yCADbOFgd6vNGhv-2" vertex="1" connectable="0">
          <mxGeometry x="71.69858376511226" y="641.5094339622642" width="405.66303972366154" height="113.20754716981132" as="geometry" />
        </mxCell>
        <mxCell id="rgDoyKE1JFjaXjuiLnZl-9" value="&lt;div style=&quot;font-size: 28px;&quot;&gt;area&lt;/div&gt;" style="shape=parallelogram;perimeter=parallelogramPerimeter;whiteSpace=wrap;html=1;fixedSize=1;fontSize=28;strokeWidth=2;" parent="rgDoyKE1JFjaXjuiLnZl-8" vertex="1">
          <mxGeometry width="405.66303972366154" height="113.20754716981132" as="geometry" />
        </mxCell>
        <mxCell id="rgDoyKE1JFjaXjuiLnZl-10" value="&lt;font style=&quot;font-size: 20px;&quot;&gt;Return&lt;/font&gt;" style="rounded=0;whiteSpace=wrap;html=1;fontSize=28;strokeWidth=2;" parent="rgDoyKE1JFjaXjuiLnZl-8" vertex="1">
          <mxGeometry x="50.943730569948194" width="81.13260794473231" height="37.735849056603776" as="geometry" />
        </mxCell>
        <mxCell id="rgDoyKE1JFjaXjuiLnZl-11" value="" style="edgeStyle=orthogonalEdgeStyle;rounded=0;orthogonalLoop=1;jettySize=auto;html=1;fontSize=28;strokeWidth=2;" parent="1EAk2yCADbOFgd6vNGhv-2" source="rgDoyKE1JFjaXjuiLnZl-5" target="rgDoyKE1JFjaXjuiLnZl-9" edge="1">
          <mxGeometry relative="1" as="geometry">
            <Array as="points">
              <mxPoint x="273" y="627" />
              <mxPoint x="273" y="627" />
            </Array>
          </mxGeometry>
        </mxCell>
        <mxCell id="rgDoyKE1JFjaXjuiLnZl-12" value="end" style="ellipse;whiteSpace=wrap;html=1;fontSize=28;strokeWidth=2;" parent="1EAk2yCADbOFgd6vNGhv-2" vertex="1">
          <mxGeometry x="161.3218134715026" y="849.0566037735849" width="226.41658031088085" height="150.9433962264151" as="geometry" />
        </mxCell>
        <mxCell id="rgDoyKE1JFjaXjuiLnZl-13" style="edgeStyle=orthogonalEdgeStyle;rounded=0;orthogonalLoop=1;jettySize=auto;html=1;fontSize=28;strokeWidth=2;" parent="1EAk2yCADbOFgd6vNGhv-2" source="rgDoyKE1JFjaXjuiLnZl-9" target="rgDoyKE1JFjaXjuiLnZl-12" edge="1">
          <mxGeometry relative="1" as="geometry" />
        </mxCell>
        <mxCell id="x7DKTGB4Y7e5SsHFoNBj-1" value="" style="shape=image;verticalLabelPosition=bottom;labelBackgroundColor=default;verticalAlign=top;aspect=fixed;imageAspect=0;image=data:image/png,iVBORw0KGgoAAAANSUhEUgAABQMAAAEHCAYAAAAamVBfAAAAAXNSR0IArs4c6QAAAARnQU1BAACxjwv8YQUAAAAJcEhZcwAAEnQAABJ0Ad5mH3gAAHGbSURBVHhe7d2FdxTZujbw7x+gu+MhxEmCQwIhwd0luLvr4DK4B4dBBmdwd3d3h+DubkkgnvTzMXPqnDsz7CQtVZ3u6ue31rPuXfcOtbuSnd7db235fyAiIiIiIiIiIiK7wGIgERERERERERGRnWAxkIiIiIiIiIiIyE6wGEhERERERERERGQnWAwkIiIiIiIiIiKyEywGEhERERERERER2QkWA4mIiIiIiIiIiOwEi4FERERERERERER2gsVAIiIiIiIiIiIiO8FiIBERERERERERkZ1gMZCIiIiIiIiIiMhOsBhIRERERERERERkJ1gMJCIiIiIiIiIishMsBhIREREREREREdkJFgOJiIiIiIiIiIjsBIuBREREREREREREdoLFQCIiIiIiIiIiIjvBYiBZh/gXuLBzAUZ2qo2Ieo3QtEUrtGr1c9p27YNfR0/F+e/SvyMiIiIiIiIiIoOxGEhZ7kvUNkzuWA45tdmQLZsh0SCk/yHESP+eiIiIiIiIiIgMw2IgZanUa5Eo5esCjbDol0F8qmLo9hfQS9chIiIiIiIiIqLMsRhIWegV1rfLJS72ZRotCnbbhvfSlYiIiIiIiIiIKHMsBlIW0ePR4i4IdxUV+gyLtsJ03EiRLkdERERERERERJliMZCyxrsVqOcmLvIZGk35qbieLF2PiIiIiIiIiIgyxWIgZYFUXB5aQFjgMyolxuFSknRJIiIiskF66PV/TzK+f3qBu3cf4PGzl/jCFQBERERW5F/jdmocPj6+imMXovDw5Ycf3/TJVrAYSBaX9ngNuhd1Ehf4jIl7E2z8LF2UiIiIspAeaSlJSPj2FR9eP8WD+/dx7+4d3Iq6jquXTuPA5uWYHTkRkyZPwdSpUzF12jRMGjkA3ds2QdPmLdG6TRu0atEcTRvVRY3K5VAyrDAK5s2Fwg1HYM2lj1IbREREZI7/FPH+/F/SkBwfg0/vXuP543u4e/ce7j+4j1tXzuH4wR1Yv2wepk2c9J9xe+I4jBr2K/r17Iy2LZqgWYsf43bbVmjWuD7q1KyGSuVKo3iRAsjl74XSQw/h03+aIivHYiBZWCz2dMoHR1Fxz+gUx4xn0mWJiIhIfvoUJERHIzo6BjExMT/+ZzS+vnmEG2f2Y+fWjVi7ainmTh2LIX06oVmdyihZOC/8PV3h5OT0Vxx0WmiEY7ih0cA/IpIrAYiIiAyRloy4/43bP8bsr1/w4fE1HNv6Y7yeNh7D+vdBnz4/0qM5apYqiJw+nsju6iyN247QCsdiI+JSFsOPshxoC1gMJIv6fnwQCmsEbxomJT9G35EuTERERJnSf3+G6xdP4+i+Hdi5axd279mKtUvnYurYwejRrjFqRdRB3foNUD+iJqpVroAyJYuhaOEiCA0rhhIliiEstAhC8udGgK8XPL284OXtbmaxz4AE9cCOD9INEBER2Y0UfHlwAgf378XunTv/M27vXodF00ejX4/OaNeyCRo2bPhX6kXUQNVK5VG6RDhCQ4qgaPiPcbtYKEIK5kOuAD9457DAeP0jGt/KGLDuFuKlOyDrxWIgWc6HAxhd3Uf4pmFaAvFrlHRtIiIiykAaXp1bjwntKyC/j7NFvhDIlkIDsI+TDIiIyJ58O485IzqjXun88HXVicdHK4wud32M2/MUPOfT+rEYSBaSgFODQpBdK37TMC1+GMBiIBERUabijvRFvhxOtlUE/CuuCG0/H7f4rYKIiOzGfUwvYzsFwL9Hk78DVj7goG0LWAwky3i/FZ1yid8wTI8XOh1JlBogIiIisVgc6pVPMI7aQJyLotPS64iT7oSIiEjt4i9PRiUXwZhoA3EoMQqnuUbYJrAYSBYQi3OTa8FL8GZhXrKjwfKXUhtEREQk9PUQfi3mIBhHbSC+DTE3iqeHEBGRvfiEfcNrwF+2ffYtG9eIP8Bv6LaBxUBS3KeNzeAteKMwP55osOQR/jwZnYiIiETS8GLbr6jsJRpHbSAFemN/tHQrREREavdtH7oECsZDG0n+ETf4/dxGsBhIytJfw7B84jcK8+OF+vPvIFVqioiIiP7tBVa2CYWrcBy1/jiUn4WH0p0QERGpXtRQ5BWMh7YRZ9Tb8k26EbJ2LAaSgtLwYGUnhDiI3ijkiCuqzohCitQaERER/Uv8AXTyE42hthH/nmf40I+IiOxGwu6mNvsAL1uOyph6h/MCbQWLgaScT+vROEArfqOQJQ4oPuwoYqTmiIiI6F/e/I4yNrrvULZsOlRZ8l66ESIiIvV7vbAidMIx0drjiiItpuDMd+lGyOqxGEgKicfRvkqfXKhFnma/4dwXPn0gIiISejAewcIx1BYSinGXk6UbISIiUrsUXIssDQfhmGjl0eVHy7kXOVHHhrAYSIpIuDIHjQIEbxIyR1uwCzY85imDREREQs+noahg/LSJ5OmF/R+l+yAiIlK9BJz+NQQa0Zho7XGriLEnWAq0JSwGkgI+Y2W1fJbZ60BXEQsfJUjtEhER0T/ErERlJ8H4afVxQ+n+W/CMGwYSEZHdSMapX3IKxkQbiG8LrH4h3QbZBBYDSXapV8YgzFL7E2nKYP7jRKllIiIi+qdYHB7ZCbXDA+FmS3sHaguh+8YXSJPugoiIyB7o70xFuewa8dhozck9BDe4e5dNYTGQ5PXpIIaXcxW/QSgRTSnMfcRlwkREROlK/YqHJ1Zj/PBB6NO9E9q3b59p6hUPhGtWFg8dK2AmTyQkIiK7k4K7u1djzpg+wvG5ffsmqFWxOIJz+cDdUcnDOo1MkcWIle6AbAOLgSSjOJyPLAdH0ZuDYnFE3ZWPOHOAiIhITmnJiIv+iE+fP+PL1xe4tn85JvZqjHIFvC2zsbl7WxxLkV4LERER/R99GlKTExH/LRpfvnz5K2+f3MbFY3uwde0yzJ8+FF0bV0aYi2B8VSh5fr0OPsKzLSwGkmz0z1ajbZD4zUHJ5OpzkKcWERERKe4b7u+bgU5lfKEVjMeyJu9EvJZaJSIiIuOkfn+H+5t7Idwi+wbnwYAj36WWyVawGEjy0L/G3uGV4Cl8c1A2uXrvxWfpZRAREZGSEvBoTScU1IrHZLkS0Ps0ODGQiIjIHHo8mFcLLoJxVs7owgZg/3upSbIZLAaSLL7u6YoQR/Gbg9LJ1XsPPkmvg4iIiBT2bBkae4vHZHkSgB57+ZiPiIjIbJ93oF120VgrV7Kj0ugj/D5ug1gMJPMlnkTfvKI3BsskV599+CK9FCIiIlLY533oW1i5TcudivfHrjfceYiIiMhsKY+wtKKSB43kQuftH6XGyJawGEhmSsGDZS0RKHxjsEw0ZabjgfRqiIiISGHRB9E/VKkvFs4oMXgfPrAWSEREZD79O+xo7CwYb2WKpgR+eya1RTaFxUAyz5dNaB6WAxrRG4OloquNbfHS6yEiIiJlfdmNboqtCPBG09WvpIaIiIjILEoXA7X1cChNaotsCouBZIZUXBlTTPkTBTOLLgJb46SXRERERIqKuzgF1T0E47EsyYcRd6SGiIiIyDxfj2FQkGi8lSnhM/FSaopsC4uBZLLv5yejqrvgDcHScWmCnSwGEhERWUAMzv/WCEEawXgsS8pgbYLUFBEREZkl5epYFBWOt/IkPPIqT/+3USwGkmkSL2JiRD44C94QLB7H2ljLE0SIiIiUF38O40oouBF5yHjck5oiIiIi87yaGSoeb+WIYxmMOR0rtUS2hsVAMsnHzW3gL3pDyIroKmL+C+mFERERkWL0dyejuGgslinBI8+CEwOJiIjkkIYjTR2E460cydlgJs7HSE2RzWExkIwXewaTqucQviFkSbTFMOZisvTiiIiISClfl5URj8VyxLkMRhzjVH8iIiJ5PMWsskrN5teh2LCT+Ca1RLaHxUAyUjT29y4KR+EbQhZFF4Zfj/CRBBERkdKu9fYUj8UyxLPGRJyOlhoiIiIi83zYji6Knf7vigYb+ADPlrEYSEZJPtUbgcI3gyyMY0mMOM69CoiIiJT1FsvruIjHYhlS4Jf9+Cq1RERERObQ4/2hUaik2On/3ujP0/9tGouBZDj9G2zokEvwRpDF0RZBv72fpBdJREREivhyAAOK6sRjsdnRouLCt1JDREREZJ732N07GBrhmCtDtDWwnmuEbRqLgWSw2N2/oIKfgicImpxcaLfmOfTS6yQiIiL5fTwaiVq+onFYjjii1WmpISIiIjLP9yPom0s03soTXbUFeCI1RbaJxUAyTOp1jAu3xkLgn/FB7Ykn8YXVQCIiIoV8xoF+Cs4w0JTD4vdSU0RERGSea4MV3N7LBdV+u44kqSmyTSwGkgHS8HRJA+QQvhFYQ1wQ1nkprnLbQCIiImUkncOQ/KIxWJ5oy83EnTSpLSIiIjLLtz+KCcdbOaIr2A5LouKllshWsRhImUp9uAq/lPUSvhFYS3Qlx+MKDxQmIiJSxuMJyC8Yf+WJK6pMvgh+rSAiIpKDHlcG5RGMt/Ike40ZuJEsNUU2i8VAysQn7O0TDGfBm4BVxbsbTn7iOmEiIiIlpOyqA61o/JUhmtzNMO/ad6klIiIiMov+CZbU9xSOuXIkqMdRJEhNke1iMZAyFH95OiK8xG8CVhVdNay4z8cTRERESrg3SbnlRo5lx+ECv1UQERHJIvXlVvQOcxSOuXKk6JwPUktky1gMpPTFHEL/Yk7CNwDrSwGMOsl1wkRERPJ7hfVtAwVjrzzxaLkT36SWiIiIyBxpeLquI/IKxlt54op2J7nJrxqwGEjpSMHJ7r6CP/7Mo3EvgJq/lEF2wf9Pubij5ZoX0msnIiIiuaS93oVfy7gJxl55knPUE6klIiIiMs87bG6j3BLhbK6NseGj1BTZNBYDSezLLnTJJfjjzzBa+JZujaELduPqq53oX9ySswqd0XDpE3DXQCIiIjnp8WpzJ+QRjr1yxBENd3ONMBERkSwSD6J9DtF4K088Gi7DY37pVgUWA0kgDsdHRSBIK34DSDeO4ei36xHexSb9+OrwAdu75xf/d4qExUAiIiL5RWNvNx/BuCtTnOtjxWupKSIiIjLPs+HwE423csQ5DD3XPQB36lcHFgPpJ2nXxiPc2EJgNh2Kjb6IJOkaQALOjAhX7ORBUYqNvYIUqXUiIiKSQdo59PQWj7tyxKPuAtxNldoiIiIisyTuaw43wXgrSwJbYsVjDtpqwWIg/ctrrKifXfzHn2608K/cFwfipEv8RY+7MyvAQfjfKxOfTgfwj5dARERE5vkyByGCMVeWOIai6+p7f3uQSERERKZLwbWJZRT7Dq4tPg7XeXaIarAYSP/wenU3lHAX//GnnyB03PROusL/id5YF07C/16ZaCv9Ae5lSkREJJ+UM72QUzDmyhLPepjHaYFERETySL6P5W1yQyMac2WIQ/0dSJSaItvHYiD9H/0NDM+nE/7hZ5i8A3FesD43+UATixYDs4VMx0upbSIiIjJXGu7OrQV30ZgrR/INwlnu70FERCSLpNuL0dLoQ0ANj9+wB1JLpAYsBtL/vFzZGF6CP/oM41kTUy6Lnw8k7akHnejfKBUWA4mIiOST8hhru4YoN5aXXoZoqSkiIiIyhx4PF9eGi2i8lSU+6HKYp/+rCYuB9JfUByvQPdxF8EefUQLRYum9dA/tSLvUV7mlRaIUGI3bUttERERknpT7y9A8QDDeypQcPS5LLREREZF5PmN1HSfheCtL/Dpg63upKVIFFgPph8/Y1j7I6KcI7qVH4nRGJ3Z83oFOvuJ/q0iCuuPAd6ltIiIiMsvLVY3gKhpvZYkn2u6MkVoiIiIi85xDG2fReCtHnFGs3za80EtNkSqwGEhIjpqFWh6iP/r0owmsh4nHPklXSMe3oxhcQPzvFUlQJ2z9ILVNREREZojDjqau4vFWjvi0wroXUlNERERkns9LUFYjGG/liK4Ieu14A9YC1YXFQHuXeAW/Nc9v9H5AQb2OI9MdAyxdDMzTERteSW0TERGRGe6hr5EPCg2PO8oM2IqnPEiYiIhIFnFH+yCfcMyVIW4RWPhEaohUg8VAu5aMCyPCoBX9wWeUHE2wxpD9AlJuY341E04nNjWBbbCGswyIiIjM920r6iu23CgvOq5/yRkGREREskjA1d8i4Ckcc2WIbx9c5KCtOiwG2rMnC1HDRfDHnlHci6Pr4gcGfoB/h33dvMXXUSI+TbDkYZrUNhEREZkq8dwoFNMJxlo5oiuL6Xf5rYKIiEgW3y5jduMA8ZgrR4ouwlepKVIPFgPt1lccGlsTvqI/9nSjQf4Oq/DI4GU9cYiaGiq4jkJxK49hB7lpIBERkXkScXN+UwSIxlo54twCh1OkpoiIiMgsSVemooxSD/CyuaLE1PtSS6QmLAbaq0ezUclL9MeeQRzKY/y5eOkChkjG8zX14Sa6lhJxLorOf9zAN6l1IiIiMkH8Ncyu7ysea+VInki8lJoiIiIi8zz+rRw0ovFWhriHd8Tvt/gET41YDLRLz7C8kafwjz39aFG4724YslXg/0nB850DUdpVdD0F4hqKdnNP4wNXHhEREZks7fZsVHIQjLMyJVff00iW2iIiIiJzJGBTVY1wvDU/DgjusAy3Mj05lGwRi4F2Jxl3lnVGqJPojz39aMOH4ZQxkwIlsdcWoV0hB+E15Y8ryg7bjzc8nZCIiMhkbxdXgU44zsqR3Oi197PUEhEREZnnIUYGicZbOZIDdebcAucFqhOLgfbm9Uo08ncS/KFnEK0X6m+JlS5gpK9HMKyUke2ZEfemW/GGZ4gQERGZKA1HGuqEY6wccS83FPvecgo/ERGRLD5tQvMc4jHX/ORF3+OcFqhWLAbalRREzawKV+EfenrRIV+Lubhh6uOApGuYWTO74LoKJWgAjn2R2iYiIiIjvcbsYoLxVZY4ovjA/fgktURERETmiT0+AqWMXPVncJzqYB2/W6sWi4F2RP98M3qGGrtkNwQjrpgx1U7/CMtb5BRcV6mEYdzlJKlxIiIiMkr0bnRVbLmRBxqteC01RGTLUvDl/k3cffQMrz4kgHNd7VPiiyjcefgUL98mSv8XIkv7jFNT6iNAIxpzZUj+sXgotUTqw2KgvUi7icjixu/d59F004+3GDOkPcCSRt7CayuTMIw16sRjIiIi+q+4cxNRNbtofJUjgRhyU2qIyEbF31mH2cM6o17pYihRqgzKVWmC7iNmYfV1E7fUIZuT9v401s3ojxYVw1G85I8+UKEJek1Ygl23v0v/BZGFxBzD0CJKHR6iQe4Oe8B3NvViMdBOxGxuZOTy4GxwDm6OaTfN3YDvBVY28RJeX5mEYcxpDsRERETGi8aZybXgIxxf5UgprOIQTTYs7el69Cgifriuy9cai29xhpjaJT9Yj1+Kuwj7gDZnI8y5wkkJZDmpV0aisKAvyhGtXwX8suoZZz6rGIuB9iD2OCbW8hX+kacfB5SdfBPmn8Whx+X+AYLrK5UwjOHMQCIiIuPFn8XYMKVmGPxI6HjclZoisjnfjmBkg4JwEfXtv6KFZ2gDjD38UfoHpC4xOB1ZHT7OWsHv/r/RIaByb6x6If0TIoW9/a2woB/KE/fS/bDpEc8RVjMWA1UvDVHjw+Eu+APPME61sOqDdAkzPRmXV9yGIvFCu+1mLWwmIiKyT3ciES4cW+VJkdFnwTMJyVZ9WVcH2QX9+t9xKNgOS27ESf+K1OEzjkdGwF/w+/45zig2/an074iUlIaTrZ0FfVCe5G6/Bs84LVDVWAxUuxdLUddN/AeebnTB6LZZvg2+H44rIG5Hofj3vyK1TERERIaKWV5aOK7KkuyVMO7kV6klIlsTiz2dDT0QTwPX3BUx6ggfTqvDVxzoXxha4e9anBwdjyFZ+tdEynmK3yvohH3Q/OhQWpZVgmTNWAxUtbfYNbi0kXsFOiJ84F7IucDh3sg8gnaUi3uHE3zjIiIiMtKNAX7CcVWOeFSPxBnuQk426y3+qOUk7NvpxTW8C5Zc+cL9tmzaJxwaUQtBOvHvOL1kb3eUxUBS3ocd+KWQUlt7+KDzEe6BqnYsBqqY/sZQFPc17gRhR/+GWPhA3lLa7YHG7ldoXnx6nmUxkIiIyChvsKK+u3BclSN5euxBtNQSke35ihWVjf/S7eBZAl0WXcQX6SpkS77j+OCiRs0I/E+0yDngunQNIqXo8fbgWNTyFfVBGaIpj6WfpKZItVgMVK3P2NLaW/zHnV4cC6DptLOIka4gl0+rI+Akak+heHY6wqdxRERExvh8AAPDjXuAaHg0KD1Pvu1HiLJC/PF+CPfO6PAIcbRuQSjZdgUepkoXIhvwAfsGlUNOB/HvNKM4FWyCGbc5LYGU9gVHh4ZDJ+iDckQbPBgX+J6leiwGqlIK7i9rizwa8R93etEU6o/D36RLyCj19hxUN3J6vTlxb74D36W2iYiIKHPvD49FdW/xuGp+dGh0nIslydal4tGShvAW9vHMk7vzNsh0Nh8p6jvOjS4JB8HvMPO4oMr0m5yUQMpLicL0UqI+KEMcc6F6/13gxED1YzFQjV5vRpcgwR92hvFHh13KLOBJuTnLosVAl1oLwTO8iIiIDPUZ+/rkE46pssS5Iha9k5oismkxONQv2MTZOC4IbLEMDzlpzIp9xJ7+ReGhFf3+MolzftSbdI4TEsgyPqxEbSdBP5QjvjUwcs8r7ndqB1gMVJ14XIisZOShIW4Ia78Aj6QryM3ixcBKE3GZ+50SEREZJukMBuYVj6nmJztCm8/FXRZASC1SH2BNt1A4Cvt7ZnFEWL+deMVv2VYoBmcn10AO4e8tszijwqTLSJKuRKS0tIu94Cvsi+bHIaw/dr+XGiJVYzFQZRJuLEGHYCP3/HEsjyk3UqQryC/t7lzLLhOuPg3XOBoTEREZ5ukE5BWMp7LEvTT6bHgE5T5lEGWFN9jUqaAJh0v8GQ1ytliOJywIWpEv2N8v1LQZn44F0XzmRc4IJIt6OruMie8/mSd7g+V4IbVD6sZioJro72NODR/hH3VGca27Wtk9TN5tRxcvcdtKxLVyJC7ES20TERFRhlL2NTJxf6zMo8nfDZvfSA0RqUnac2zqFWbiDMHsKNNvI55xxqwV+IxjE+ogp5F7rf8nzig//jz4tYMs6wu2d/AX9Ed5UmjEdS4RthMsBqrI62URRi4PzgZdgbZY9Vy6gFJSX2BzPSdh+0pEFzYQB79IbRMREVGG7k0ppdgMA8dKs3Ffakd+eqQmfkdsTAxiYqIRHS1ITCxiv31DIk9FJEW8xJp2BUw+0dO/xSoo/TGcMhKNQwMKm/b+p8mN5vOvsxBIlhd7GmMruor7pdlxQ7O9WbPflj41GYnxmY3pf/7/YvEtPhHJqXyaYi4WA9Ui+gRGVzDyTUFXBL13vFW+8q//jBOdvcSvQYFo8rXBH3e4TpiIiChT+ldY3y6XcDyVI4F9zsq4RFiP5JjXuHvhGPZsWo7fZ07GuOGD0KNFLZQJyY3cuQUpUha1mnfDwNFTMW/FJuw5dgFRD94iNpnzHkgur7C9T1ETZwh6olTn1XjEYnUW+Ij9Q2sgyJStjLTZUXHcWS4Npizx5eQ0NMqtFfdNc+NQGjMeSw0pKS0BX17cw80r53D8wDasWTQT40eNwNBfB6JX6zooHyoYz/9MSBnUatEDAwcPxfBRYzF9wSps2XcCl249wsuPsXzwZyQWA1Xi9oRqyO0s+IPOII5lJ+OWJQrq+o+WLQb6VcPw7Y+5iS8REVEm0l7sxOCy7sLx1PzoUHNtjNSSiVK+4umF7Zg3rC2qhgTC290JWo3mf21o/va/G5Qf/71G44js/gVRsk43jFt2AFEfk6XGiEykf4KlbQuaPEMwZ9uN4Gp6S4rDiaFFTZwR7Ym6c2/zewZlke84NaohCrmI+qa5cUCumsNxMk5qSk7J0Xh58wQ2zx+Lnk0qoWgeb7jq/hyP/8zfXoOBY/o/x37pOjoXeAUVRrkGXTFi7gYcv/sBCXzulyEWA9Xg8xa09vnnH0hm0fpXRt9diu4U+H/0n3BmZEnF9iP6Od5otPg+EqTmiYiISESPlxvaI0A4lsoQhzCMvWHaJ/G0mMc4uWoMujStjlKF/KERXV+WuKNwxUboNmI2tl99w88OZIY32P5LEdMKghoPFG6zHA+56k15qU+wqXdp+DkIfg+ZxSkQlSecwTfpUkSWdx/TSjuL+6e50eVBo0lH8UlqyVxp357j4rYVmBs5BD1b10XF8PzwMWlvTlPigXzhldCg/UDM33cLH7kaQIjFQFunf40tPQoZ+WRLi+Dee2T7Q89cNC4v7oJwV9FrUSZFJt3lHh5EREQZisbuTt7CcdT8OCFfxBAcipaaMkgcnhz9AyNblUWQm0JLoDKMC/LW6I15hx7yyz6ZJvUOFpoxQzBf9+14L12KFBB3BpE1TH3Pc0alaTd4MjplrfidaOgk6p8yJHsVjD9p1KAtlPrxGrZEtkEJLyNn7isWDZx9w1C/3xzsuvkFfObyf1gMtHHvtnRBaR8jPzD7tsdOM1ftGOvriQmonkPwWhRKrkEXf3zFISIionTpL6CnUqf9awJQZ8IhGLQGIfkjbu6djyEtyyOvm+BaFo0Wzp5BKFy+C2YdeAQlVkuRyr3Zjj5hjoK+ZUicEdBiGR7x26r8vl/A9Agfwc/cgDjmRo0xJ2Hhr09EP9FfHYZ8oj4qR3J3w25TD+FMjcWLC5swtUctlCjgB3dTZt5aIA45i6F+r+nYdPUDC/s/sBhoy9JuYmp5Iz9sOBdEw0m3LX5cuP7xcrTIKXg9CsW9xU684mxgIiKi9H1dgHDBGCpLnEth2OHMvlUk4uXp5ehfPciCW4kYEw8U7zAbx17zKwMZ59PRcWgaYuppn04o3nc7XvJzrHy+HcPQcqbujapD+JDjnC1MVuH5olpwEfZT86MrP9eE081T8OLYUvzaKAxeWvF1rTE6v3LoPHM/ntn58M5ioM1Kw/ONPVDYyBOwnMuOw/msOPrq3Q70LGjBqcKFRuNkrNQ2ERER/STlbF/kEo2hcsS7Oda/kxr6SRq+3tqBad2ro2B2a1lGlF6ckbN4QwxceREfOVuLjJB4cxFa59UJ+pQh0cCv+XI8ZkHQfNGnEFnD9IMMfSPm4wF/D2QVPmJPnyImHnyTeQL7XzZiwlAaYp8fweyOJeCps/ZxPL3o4FN5INbdtt9SP4uBNkr/cD7q+4s6dUbJjkar0/1krqzP+9CvsAX3//Hugm3cdIWIiCgdabg3LwIeojFUjhSbjAdSS/+Q8gqHFwxG4+J+VjobUByNRwjq9JuHi1wnSEb4eHwm2oS6CftU5vFAmb4b8JRFaNPFncWYCqaflh7UbB5u8FQhshL6twcwpppS+/y6ou5aw9YIJz07ipUTuqBWqKmzn60s/rUxes9zu1w2zGKgTXqLZTWM3YtEizxNF+OpdAWL+7QbPQtY8KkBi4FERETpS36ItV0LK1aQy9Hl9L826U7D+7ML0KWkh/C/t5U4hbTDwstZscSCbFXC1TmoH2DqDMFs8G+1Gi+ka5ERPh3DuGpmzAisPQXXkqVrEVmBj7uHoHZuB2F/NTfaoAhMv5nJkwd9NK4u6ogiSh1gkpXJXhTNxx+DqVsm2ioWA21QwtUpqGLkybwOhTtj1b0k6QpZIO44BhayYDHQqS6WZFnlk4iIyLql3FuMxt6C8VOmlJhw/W/FwG+4vXE4auey1aVE/4pvA8y7xX0EyXBfLixAx3ATZ9FoPFGyw0o8TJUuRpmLO4eJlbKLf54GJLDZItxiIZCsShLODg6Fo6C/mh9nFG4zG+cz2GJL/+Ua1g2tg5zCf6+SOBZGpz9uwp4mA7MYaHMeYVazwnATdeB044IKEy8iUbpClkiLwriilvwSEIox17iugoiISOTVqoaKbUKeLZsvOiy89J+TN+OuYmHrovCR7WRBJ/gVrowWfSdh2dpN2LH3MI4ePfpz9vyBiX2ao1JehZYx+dfF5FM8a5gMF3d+IioHmj6rx7fpMjzmR9vMfd6D4ZVyCH+GhsQ/YiIuZOmXJiKRt1hQWqnv0gFoPPdqOofkpOHt8RloVdIXOuG/NTVauAUUQpFipVG+ahN0HTIFS1ZvxPY9B/83jh/YtRXrV83DhAHtUb9iKHJ7u8r8GgRxzouaY07BXo4eYDHQxnzZ3hY+oo6bUfL1wvYs2irw/7zC3FKWLAZ6oO0BjuREREQ/i8eORs6CsVOu5EXngeMxZ+UOzOhYGj5mnjCo8S6NiLb9ELlwG87e/4D4NMO3ONcnfcGTS3uwbGIfNKuYGxrB9U2OfxPM5/QhMsK360vRuaipf3tuyFt/Gk5/lS5GP4s7j0nVTd+KIGeTRbjLSb9kjRIPooOnuN+aHV1xjDwrmA+X/ApH5/VBrYLuZo+dOq/cCK1YHx36j8Oc1btw+uZzfI5PRkpqKgwZ0vVpqUhK+I6Yp6exZlx7VC7kpdy+w24VMOLQJ6lldWMx0JbEn8awcCMP4dAVRs8tr4w4GUgpMVhVyZLFQA0qr+Iu30RERD97iMEKLhHOls0L1cJzw9PJvHHfJagsWvw6DzuvvEK8DB9k9LG3sbRtPnlPYvSrhciLfPhIhos+NhK185pejHcI6YQV3ETwZzGH8GsF05cGB9SfijPcDpSsVNr1sQjTiPuu2cneBJv/9ZBB//40fu9YHNnNblMHv1JtMGHNMdx+Hy9bTSL+3hYMqxkIV4V+Jg7BHbDiudSYirEYaDNicXpiExQ0csNOn7a7/rNMJ8tFY0010zdPNj4sBhIREQl9344mbqKx0xriCP8STfDrivN4p8gMnXg82DEBzYqYfsLoTwlsigU3s3BfZrI58VFL0b6Q6UuGnYr1w6630sUI+HYOk2t6Cn9WhsS3wTzc5oxAsmIvVrdCgKDvypLSi/D3eXDxV+egSaCLWQ/OPEq1w/AFO3HpWbSCp/Qm4N76/qig0IxJtzpLVH94E4uBNiLt7gLU9zJuVqBDYFWMuZH1cwL/Ixab6joJX6cy0aDC0s9S20RERPRfiRfGoKRse/jJF617bpRqGoldD+OlV6qcuMszUS+f+Uuf/hffCMy8yRMeyHCfjkSiaWHT97TUBXfExtfSxezZt+MYVs7U4r4GgU3m4jK3/yRrlvoM2/qXhKuwD5sfz/b7/3doxvcL01DL1OKaxhl+Raqj24xduPnZUuNhPK7OaoNwD8HrMTuF0P+IuqcLsxhoC/RvsLNPUSPXxbui8qTLVnQaTgL2tzZ9Dw/jo0GJaY+ktomIiOg/4nFjQTMECsfOrItfnVFYf/mDgjMIfpb0cAP6lHQTvh5T4lBqPC5zC0EyQmLUQrTIbfrKGadifbHthR2fKhJ9EhNreAl/NobEN2I2bnJGIFk5/bO16F/ZT949b/8XHar+MgPbr73Fky39Udpd9N8YkBzVMG7debzKiuJD2mvsHlIe2UWvy6w4o0i7+bit4ud8LAbagC+HBiNcJ+qgGcS3HXZZ1SrZNFweFix+rYpEg9DhFy36pYKIiMjqxV/BjFqmn7Qpe3RuKNFzFW4rPxlQ6P2eASjlZ/pyzX/GD/VmXES0dG0iQ3w8ORvtw0wvSuuCu2Nrlh8UmAXizmBMedN/bkHNFuAmt/skG/B1ZwcUUnI2v84BTi7upp3Uq3OFV2gnLL2RtTPo/iyYdsgteH3mRpsb3Q+od+owi4HWLvkapldzEXfO9OKQH01XvJIuYD1erW4Bd9HrVSgFe+3nB3IiIqK/SbszCxWMfcCoUBzy1MfY3Y+RtbvtfcWpyBrwFLw+U6LNEYJfdr6Xrk1kmIQrM1E3wIwZguG9sOGJHc0Q/HQUY6ubMSOw9mRc5TafZCNujsgn7MdZHdfgxhiz5baVnE8Qj/OTa8Fb8DrNjVPVhVDrWSIsBlq1NDzd1BOhRj4J8G+2GPetcErc281dFPkDTS8Feuz6x2aoRERE9u7dkorynqZrSrTeCG86AmuuW8kju4RTGBQseJ0mxrNGJE7xaSQZ6cvFhegUZsYegkV6Y5c91KHjLmBiZTNODW62ELe5nJ9sxmesqinX7HW54o4SPVYg6ru1nE0g+bgT3fOLXq+Z8W6I+XfV+abBYqA1e7kcXUsZu8+eA2ptsM5TdF9v7MxiIBERUZbR43gTS57sL4jWF2V6rcN9K5uV82Z+Gfn2Y9IFIWLkMfBMAjJW3NnxqBRo+hd/xyKdseKRlX1Bl9Pn3RhW0fRtDvwiInGOS4PJliQcQbcAcX/OmrijzMAd+CC9POuSgD0tTT1MKIPocqPO6ANQ49GkLAZara/Y1tZH3CEziFvlWbhnpZ8B3m+17MxA/wZzcN16TlAhIiLKYm8xr4xGOGZaJLr8aDHrHL5a4eeUlOuRKOckeM2mRhuGsVd5ujAZ7/uNpegU6izuVwbEIawfdqtxD8Hv5zG5uumHEfo3WYg73EycbEzq7Vmo7ibu05aOzq80eq67D2ueI/dmUUXT9j7MJNoiv+KUCh8ksBhopZIvjkJRjbgzphenYv2x8431Pg2MPtDPoqcXepQbiK1PuA6ATJD4CjeuXMDZk0dxcO8ubNu0ERs3MoxtZ9PWndh74AhOnLmAy9efIGu3eqYsEb0PPfOJx0zF4xiEav13wWprFPFXsaBtITiIXruJ8Wi42nrvl6za1+OjUTe/kXuG/y0OwR2w8oV0MTWIOYTB5UxdGqxBYIMZOMupumRzEnFvZUcUtIZ9fjUh6H/YOlcf/l3a1eEoJHr95kZTGjOfSI2oCIuB1ij5EibUz2NkVTsnmv/xCNa8dbD+9W60zi567cokR5neWBX1TWqdyBAJuLNnLvrVL4qg3PlQILgwfOWcKcIwWRwHr0IILpgPeYIKoUaPadh6xfo/2JF8Ys9NQ4SPuG8oGk0QGv123ko2GU9PGh4taw5/0es3MZrAhph+lmV3Mk1C1GK0K2j6kmGnYgOw8610MVv27Rwm1zLjsJB6v+M2ZwSSLUq+jSXdS8FD0K8tGW3Oahi0x0Y2JH26ADUVOXk5B9oeUN+SQxYDrVDslsbILuyE6cUF+WuNxelY6QLWKv4+JoeKXr8y0eZuilnnP0PFO6eQzD7sHYTiFixYM0xWxzlfR6y1pxMo7Voszk2tAx9BP1A0TvlRb+QuvLKBwVh/dwpKaQX3YHJ0yNVkAz5K1ycy1qcjk9C8sJugbxkWXXBHbLLlguD3UxhRzvQ9wIKazMEVzggkW/V8GZrkz+LDQzSF0HuPDe2W93U/+imyx6IOFRa8khpRDxYDrU3ieYwubuTm3u5VMPGsDczuiLtn0WJgtmz5MOAUi4FkmMRbK9EtzPQlOQxjm9EgqN5kHFPjrsj0Tyl3ML+qo6APKBiNLyKmnoO1P6v8n+R9aCr3bHBtBfyupuWaZHGJNxagWS7TD/5xKtYHW1/Y4EOfr6cQWcP0GYE+ETMRxRmBZMOSDney6H77P8W3JsYesrHHWakPsaaWEgVUHUpNuAK1vaWwGGhVYnByUj0EGblXoH+HnYiWrmDV4u7h9+qWLLY4oNaax1a9ySlZi4/Y0javfCdJMoxNxfnHB5ybVr3NBMngw0a0sOQm5E4F0WzyQby2qY51D6PzCu7FrLih9uJn0vWJTPPp9By0DzNnhmAPbLelDSzjzmJceTNmBDZbiCieGkw27smUMGH/tkgcgtFrl3WeGZyxTzjV3fhDWDOPDqGDDtlGzcUILAZakbTb01HRy7gnf7qgmlj4XLqAtYu7hw39yyGH4D6USkDfAz/eEogyEbcHbXKI+xDD2EUKRuKR9OdA6qS/1B8Bot+9EtH4oOLYE1a+R6DIZ2xtlUN8TyZHg4CGM3DWZqZHkrVKuDITdQLMmCFYtCfWPbKB6vynQxhT1VN4D4bEr/ZkXOFMALJ5n7GhoekPAMyKWyWMO/VVeh22JhY3hucR35dZ0SB/t61Qwzasf8dioNX4hL39ikAr7HzpJQDNl9y1nZlvaR9xYnpj5JZ1P56M49ZsFZ5ynTBl5vsOtHAX9yGGsYuEz4b6dkKhv3u7sKKRnzFMjRuKdV2CqzZ5bkYcTg7KL7gnM6MpiB571TafgLJC9OVF6BzmKu5nBkRXpA92WvM5AHHnEVnF1FODsyGw2SLcYSGQ1CD+DIaHaYX9XNkEos3al9KLsEXfcGuUAuP4jwQ0moXLKtuDlMVAK/F++2BU9BJ3vHTj2gz7kqQL2IRk3FveDvmMXAZtThyqz0YUPxRQZpKOoru/uA8xjPrjBL/me6G+M9Lo/8Ridzslls38HG1AK6x4YqtP4ZJxNbK48L7MjX/PU6rba4iyxvfTo1Ep0PT9Px2LdMIya/wb/bIHQyqaPjPXPyISZzmQkUrEXZuLRhb/bhKA5ovv2vhYFatYMdCzfF+suWWTTzrTxWKgNfiwAc29xZ0u/fii4Qrbq9p/PjAQYYoc9y2OQ/U5uMVP35SpOJweFso9Axm7jENweyy+kyr9LZAqJV3B5IrK79mryRmBcYdtcY+h//N+dxdlNmwvMha3uFKBZBJ3fSk6FXES9zUD4hjeD7usaQ/B7xcwpYbphUC/xgtwh5/3STW+4+LctijsLO7vysQNlSddhk3NMxJSrhiYzbUqZt76JrWjDiwGZrlEnBxUUNzh0o0ryo08Cls8/DHx8kRUsOQbW8lIXObMQDLE+z3oVzSLj+9nGIvHCZVm3OHhISoXH7UIrfMqvdxIh9ITb8DWy8qJd+aitBIrGJyr284ez2QTvhwdjXoFTS/yOwR3wBprmFcQexi/ljN1afCfe3LOxDl1TdYhe5cahen188FR2OeViAuK99mI56p4YKVgMTBbXoy4aXu7IWeExcAspn+4El3DnAWdLYN41MfiJ9IFbEzS1Wmoasm92TRlMe+N1DhRZv4sCJb34QxBxg6iQfbgCPSdf53Lg1UvAdd+74BwJU8S1gWi2oC9+Ci1aMtSnq9FLSVWMGiD0XsPjzQjeSXcXIK2Bcw4VKRYP+x8nYUVgNgzmFzT9MNCfOvN4wogUp9Pq1HHVdznlYhb+VE4ZqvnhfxEuT0DWQwkmcXj6C+F4CTsbOlE64nQ7nvwRbqCrUm6Nh3VLHpQQ04Mvi01TmSI789xbv1E9O7WAS0b10XdugyjrjRq2QHd+07ErvucSmEfHmJe3UBFDw/J03mzak7YS327DY0VWcHghepjD+EdlwqTzD4em4pWoaafOqor1AmbsuLB+feTGFHO1NetQa6m83AtXroWkYroL/ZBTmG/lz+O+RthwgnVVAJ//PA+4lR3hfZI1hRD5M1YqSF1YDEwCyWcHYliOkFHyyCuZX7F3je2+0ky8cokVHQR35syyY/R96TGiYiI7E3cLrTILhof5YlzaA+o6aDc1DdKFQMdkLvOCOxVw/RJsjoJ139H00BzZgj2xZYXFtww4stJRNb0Er4WQ+ITMQM3uA0QqdSzOeUsdPq/FsXGXFbX4VYJVzG7pOhezY82fxss4QEiJIsvRxEZkdPI5Yh50MPWP3G/WYYIC057zpatIMY9ktomIiKyN3dGo5BwfJQhjoXRcdltVX2RUK4Y+CPuZTHmIisYpIxPp39H+zAzZgiG9MSO99LFlBR3DuMruAtfgyEJbLYAN23/lAOidHzBrs6Bwr4ve7xaYbMtHkKQkS/70T9QcK8yxL/eVJyJVtf0fhYDs0QyLo0Oh4dW3NHEcUbBJutsfz8e/Vl08hDdn1LJi3FPpbaJiIjszNtlteAsHB9lSK5O2GxNJ5LKIO2dgsXAbC6ov4ZTA0k58Zemo1aAGTMEw3pg3SMFZwh+OojRVczYI7D2RFxmIZDULOYkxlcyvVhucHJUQ+RpdZ2M+5c3G9A+h+B+zY4GBXvvtdmt2tLDYmBWeLcV3fKJOln60eRuhaX3VPA0WX8RPbzE96hMcqLnST6FJyIie/QNhweEKHYokrbMTDyUWlKLrycGI5fgXuVKvlHcu4SUFX1lMTqFmXHKcJE+2KVEkT/uPCZVNfXU4GwIaLoIt3lYCKnc52NT0Ci30qf/+6DFmtdSi+qivz8LVYyacGVoHFB8+EnESe2oBYuBFvcW2waVRXZhJ0s/Hq33QBV75KadRU9f8T0qE0/UW/gAFtwFhYiIyDrEnMfUCG/B2ChPXJruQ6LUlDok4+rE4sJ7lStOzY+DZ4iQ0r6dGo2quZyEfdCQOIZ0xNIn0sXk8HUPBlfwELZlSHLWnYyzPPqeVC8OJ4fXQX7FZqf/GWfkqjxZdQ/y/iv14iDkE963uXFFxcjz6qjH/A2LgRb2aWNjuAs7WAbxaYQVr6QL2Lq0s+hq0ZmBvmi89BGLgUREZHeiT01Hs4KOgrFRjuhQaZFazhD+ryRcjlS4GFhnHVR0biNZsbgbS9CxsBkFwfAB8swQ/H4eU2rmELZhSPwazccdzggku/AQ00opNWZL8YrAbyo+hvvD8mpwEN232XFC+clXobb1hiwGWtQ9RBYVda4M4lYWg3dlxXn/CtFfRm8/wX0qFj80WcKZgUREZG+ScWl8TQQqslzmRzQlMPGW2ua4xePsyCLi+5UpzlVm4R6nBpKFfD4yGg0KmrFkOLgD1pozISH2GIaUM31pcGCjmbigrsM7idKXsBtNXMR/C3LFvelWxErNqY8eV37NLbxv8+OACrMeSO2oB4uBFqPH03U9EWbktF+/FqvxQrqCOrzC4hoOwntVJu6oOvWKypYxERERZeYtFlcxfVZQZnGvOAYnVbf3+Gdsa2P64QaGxK3qdNzgLCeyoISoxWiT34xDRYr3w45XJlSwY05jUk0v4TUNiU/dObjFvxWyI/rrw1FA8LcgWzyrYM4jqTFViv4xhpv+npNxHFB7k/oOXGEx0FKid6JtkHEDsc6nGAYdU9vjsGjs/cVCx6X/FScUH7gX7/kUnoiI7EnKaXTzEY2LMkSbG01mnlHhctfnmFNGI75nmeJebRqu8gklWdjH49PRKtRN2CcNia5QZ2wxZleA76cwqpyp7WkQ1HQeVLySkUjo+dI6cBP+TcgQTW40n39N3RNkUq5jWlVX8f2bnRzoel59BQUWAy0iCWeHFDbyNL/sqDBsP95LV1CPbzg+LERwv0pFh/zNZ+PsZ1YDiYjIjjz8DeV0onFRhriUx9hT6ntCDlxHX2/B/coYFgMpqyTc+B1NAs2YIRjeG5ueGbDxzudjGFfd9Nk5vrVn4DpnBJLd+YDd/UKhE/xNyBKfdtgRIzWlUgl3lqNTiEIrEB2qY7EKD2BmMdACkqIWoGUeI580F+iDw2r8nI1vODU6THzPCkVbuBe2veCnCiIish/Re3sir2BMlCWeLbDpo9SQmiTtR0tXwf3KGBYDKSt9PjcfHcPNmCEY/Au2Z3SoSNw5jK/oLvy3hiSo2ULcSpKuRWRH9K/3YVR1H+HfhRxxbbhJ5YdXpeD+8hYIENy7HNGGjcAZFZ5ozmKg4mKxpUF+uGvEHUsYx0DUXPlB+vdqY/liYDbHWlj5XG1n/xAREaUnGVFz6sFbNCbKkcBBuK7GCfcvl6AOi4GkcvEXp6J6gBkzBIt2x5qHqdLV/ubDAYyqavqem761I3GJfxtkpz7uGoQauZTaV98F9deo8Qne333A9k4K7Reo8UWlAVugwomBLAYqLe32FJQxapmO5q+Tsy6qdp+MJFybWQFa4b0rlZKYfU+FpXwiIiKR+Jv4o0MIHIVjovlxa7IdajzgM+32dFRyEt+zXGExkKxBzJUl6BRmxinDoT2w4cnflgx/PooxlT2E/60hydl0IW5zEQ/ZrRScGxSi3BLh7LUxV+3H2Cefw6B8gnuXI15VMGznCxiwSYLNYTFQSdEnMLayscfpe6PtLjUv6NfjycoGcBbeu1LJj5EXVb5JAhERkSTpxhy0DVVqE21H1FrySmpJXRLOjUIJpfZZlMJiIFmL2JOjUT2P6SeOa3M1wKRJk/5K56KmFxZz1puCMzwshOzaRyxS7PAqNxTvuhQ31D7uvF+EMsasxDQi2uCe2PpGncVUFgMVk4SrM6obXfTyb7EexhzWZYu+XY5EYcG9KxeHH19c7kKwoIGIiEh1Xi6pg+zC8VCGeNTEjBtqnMKTgKiFzZFLdM8yhsVAsibxUUvRobCjsK9aIn4NF3BGIFHiYXT0Ev+NmJ9caLX4jrpPEf4h8WBHeAnv3/w4VvgNap1YyWKgUl5tQpf84g6VXnJUHIbdaq8E/pD6ejPqK7wM598pMOQYVHkeCxER0T8k4lAHhfbNyeaEIh0W4Wqc1JSaxN/AglZ5Fd/GhMVAsjafj45F42ClZhKnFw2CGs/GJTXuN0BkpLQbkSihFf2dyBBdSYy7pPa989NwY0IJxcZvz7YHoNYNx1gMVIL+JXYOrWxkdTo3umxV66Eh/5TCYiAREZFCbmJ0QfFYaH58UH/2DVXOMEh7vAqNPET3LG9YDCRrlBC1EK3ymn6oiLHxqTMbtzgjkOgHPZ6tbosgwd+JLHGqg3WfpabUSv8Mq1sHie/f7OhQZcl7qSH1YTFQATG7OyO/sXvOhI3EeTv5cJj6xvLFQP/uu/BFap+IiEi1Pq5DI3fxWGh+CqD/MXVu7hV9sA8ChPcsb1gMJGv18dhMtAl1E/Zb+aJBULN5uM5z/Yj+I+UxNvcrDTfh34sMyT0EUVJTapV0dw16hJu+b2nGKYIx19R4dMh/sBgot5TzGGL0E3lH1NnwUrqA+unfW74Y6FhzEV5I7RMREalV3JnRKKvUGKsphbkq/bjyeE4FxZcI/xkWA8maJVybg4aBys0Q9Kk9HdfVvmKRyAj6Z6vRu6IfNIK/Fzni2/mQape4/kcKbkxtihA38f2bmxzlB+Owis8hZTFQVsm4s7i5SdN8XesMx/prX/Dn3pRpKUmIj49XVRKSUpD24+YSnh7B3B6hir3hpZsCwxGl8hPViYjI3sXg4qzGCFLoRL1s/r/grCpP40rEoU7e4nuWOa6VJuEyi4FkxT5fWICO4fLPEAxqtgi3WAgk+oeYXe2RV6kxO5sPWqx9I7WkVk8xs7jpp6JnGE0QGs04g2ipJTViMVBOH5eicqB5nVGj1cHByRmurq7qirMjHHRa4T1bJK6tcIR7kxARkZrFnsa05oXgLBoHZYhH6x1Q5wPyF/ithPie5Y5T2fG4wCWSZOXiLkxCtSC5vmBrEFhvEi4lSRcnov+5Oyqv4G9GnmQv3QtrHqryCd7/SdmOaoJ7lyXu1TFT5VOZWQyUTRqujsmCGW+MYXFpjkMsBhIRkYqlRk1GBWfBGChLvNHojydSSyoTfwy/5BLds/xxrjIb97lSgaxeEl7vG45KOcT92Kjkao2Vj9W75xaR6b5iY32l9rpzROgvG/FU7d9/bw1HPuH9yxC/Ttiv8hPPWQyUSfy13xDhJehEjHXEuSn2c2kCERGp2Oc1teEoGgNliEeZXlh9T50DaertuYiQo+hhQFwiVkK95xKSujzDkgh3YT82Jnl6HYLKv08TmSbpNAYXEv/dmB8P1F344K8tyNQrDXdm14C78P5lSPAEPJZaUisWA+WQEoUZ9QrCRdSJGOuIUw388Vb6fREREalOMo518xGPgWZHi/wdVuKRKmcYpOH19n4It9DBZm7N9qh8M3dSBf0nXFrQHkXk+LvIUR2Tzn6TLkxE//NiFVr5C/5mZIk/ehxX+Qa13y/j9+Z5FDr8S4dCI6+pvJjKYqAsvu7qilyKbfzJyBLH8pgSpfI9E4iIyI49xPTSGvEYaHacUH7qDahyFNW/wd5BpRTbZ/Hf8e5xXvVfLsjW6fFic08UkfF0TseQjtjwWro8Ef2gx8eDw1FOoVNws2UrjtmvpKZUKu70KFT3Ed27+XEuUA9jL6t/WSGLgeb6ehKRNbyEnYixorhUwEQe30dERGr1eTd6FBCMf7LEDU22x0oNqcyXfegVJLpnZVJ8ykOpYSJrFI+bK/uhkp/8DxacivXF1pcshRP9Rf8Ge0bXQk6lJhQVGIqrKt+q8960UtCJ7t3sOCKkwxJE2UHpgMVAs3zF7m7BcBB2Isaq4lwO487FSb83IiIidfl0fAJqeAvGP1kSjPH3pYZUJvVsfwQJ71mJuKPpug9Sy0TWRo9XOwehtGIzlbJBF9wd295JzRHZs6/70ae4s/DvRI7k6rkfKn2EJ/mElbUdhfdufvzRfPkTu5jFz2KgGeIP/2LBD5CMWXEsiZGnWQwkIiI1+oD9kY2Q31Ew/smRoL44pdLVMm+n5BffsyLJj8En4qWWiaxJIm4u6oqyPkptNfB/cQr/BRuf8HRhsm/6G6MQLPj7kCVuZdB/m8rX5X/bgRYegnuXI5piiLwrtaNyLAaaKvUJVrfNLe5AjPVFWxDdNr/kPj1ERKQ+CecxtpL5p36ml4CO26DO+WypONFOuZ/bT/FtgVVP+EmErE0aXu4aikoWOlH7z+gK98JOzhAkO/bujyoKLXHNhuwVhmPvG3WPNTGH+qKQUkusvbvgSJLUkMqxGGii+CO9UTmnTtyBGCuMHyImHcMnfgYnIiK1eb0C9VxEY58M8aqEQZufQZXzePT38FtFJ/F9y57sKNF1Ea5xYiBZlVTcXdwURZWaYZNBnIp0wcpH/GBO9igB+9vlEP5dyJHcnTbjjdSSKqU+xJpeJeAquHc54lBzFT5JTakdi4GmSL2OiaUdhJ2HsdJo/FBj5E48tZMqPxER2Y+4PW3gIRr7ZIhTaHeseaDOwTPt5QZ0ya/8ssi/os2NprPPI1pqmyjrJeHJjmGoqtBpnIbEoWg/zhAk+6O/j9nVlNovUIPwyNuqXg2nvz8b1RTb29QDEfMfSy2pH4uBRovHlek1FPvQzSiVHCjbZzVufZN+jURERCpxZ2Q+wbgnT3LUnIErqjxRLxXPNvdBcWfxfcseh6IYsM9e5hqQ9dPjyZr2CHYV9FUD41t9NPbu3ftX5rYsYPKBig7BHbHiufSyiOxA2sst6FlYqRWGDqi9Ud1feN//UU2xJdbupftj01P72dOUxUAjJVycgFp5TVhSonWFf968yMv8SCByOFnoSfzf4lRpOm59l36RREREqhCNne39hOOeHAnovE+lJxK+xIZW3sJ7ViTO1bGQBQ+yCgm4t2kIqvmb/lnct95MXP77uXxpT7C2UyFoBf+tIXEq1g8730rXIlK1VDzZPAjlldqjU1MKM59KTalSIg628xTfu9nRoPDAY7CncgGLgUZ5h/WtfAUdJ4Noc6JKv9nYcu4xvsbH4fu3WMTExNhtvsXFIzEpDq+v7cWiwcrNZBDGqzOOq3MHdCIislfxFzGpinKHYJSYodJvFbG70M6CByZk8++J0ylS20RZRo+XW3ujqMkzAjUIbDIHV0TfllOeYH3PonAU/rvMowvuiI0qPwCVCHiFdZ1D4ST4G5AlRUbhoprHGv1NjC0iuG9Z4ol2e//+lEP9WAw0wpdjY1Epu6jjZJA8XbH1fap0Bfo/qXi5qwXcRD8zxZIXw4+pc34DERHZp5iLv6NlfqWWGwWi33mVLpe53gtewntWJs711nO/QMpiCbi5vA8q+Zk+I9AnYjaiMiw0vMaGjgXMmCHYF9te2M8SPbJD8YfRLUDc/82POyoMP4KvUlNqlHZ/Ieop9SDPuR42fJEashMsBhrq43Z0KqAVd5x0o0GJyJvqPIFPBvGXxyBMqSPBhXFH67WvpNaJiIhsXQKu/lYfvsIxT4bkaIqNKt3mLnZNRWhE96xIdCg99a6qN3Qna6fHq12DUNaMTfeDmi1AlCH7h+pfYEvvMDNmCHbHVh4qQmp1LxJFBP1eluSsiyknPksNqVEszkxvjFxawb3LEJdqC2Fvu3mwGGiQBBzubOTy4B/JUXYgTiZIl6CfxF5diLYFLXkqsztar3rGD+NERKQSL7CmWXbBeCdHHBHceiHuq3JxQwrODy0kuGdlovGvhTGneIIZZZUk3FzUEaW8zdgjsPYUXEuWLmeQ51jdroDJm/w7hfXEusecTkHq82llLZML5ZnFodivOKLmKeixe9ChuI/JM48zjEMhdFj60O4mcbEYaIC056vRNlDQaTKKXwQmHeepcRlJ+3AE46pbcPPubE6ov/Ahi4FERKQOyefwawHReCdDXMLRY+UdJElNqUrqPSxo5CO+b9mjRe7GM3Bazeu2yIql4eWu4ajsJeqbhiWg2ULcNqoQ+F+vsa1XqOmnDBfpjV3vpUsRqUISzg8tIuzvcsQ1YtmPvzr1+r6nLTwF9y1HHEv8isN2tkT4TywGZioaOzqXho+Ry1kL9NyJj9IVKB36p1jVOkj481MmWlSYdpvLtomISB2i1yHCUTTeyZBcrbDsvjp3IU+8twrdijqJ71v2ZEeVyLPgvECyvFTcX9IMRYzd7/xv8YuIxDlDlganR/8Ii9sVMrkg6FikM5Y/4WN8UomUe1jaPFDY1+VIjk6nfvzVq9V37Gmj1CnC2eDb5SDscUEni4GZSDo3FEWM3dcuR30svMsj4zL3Ebt7F1Zmqm868Wi1B/FS60RERDbt4QSECMY6OaIJH4VLJs0GsnapuLuoDtwF96xMfNFhr+joVSIlJeHJ9mGo5ivqk4bFr/FC3JHl68xbbOsVYvKSYYfwftjNPQRJBRLvrET3MGdhPzc/TqizRsVT277sx4CiSh2W5oYmW2OkhuwLi4EZSbyO6dXdBR0mo/ii7m+XYV+HUpsqFseHl1Js3wRhis/njE0iIlKF5GOd4S0a62SIU8QaqPNrxRusqG+pWYF/piimv5SaJrIIPZ6u64hgV1F/NCQaBDaciXNy1rDTHmBV1yImf+Z3CO6A1S+kaxHZpFTcXdAWhZ3Ffdzs6CpiziOpKdX5c5ZzewQ7CO5bjjhWw1I7feDAYmC6knBzfjuEewg6TAb5c+POQ9wXxkCxODI43OQnhSaFxUAiIlKJDxtbKFYMDJvyUGpFZZL3oZGT+J6ViEeVBXgmNU2kvATc2TAIVfzMOCyk3jyZZgT+2xts7VbQ9ENFivXDDjVviEYq9x7rGucQ9m054lF9Ii6pdp3rI8yppNxDPL9GC/DQTncjYDEwPe93oEdBR2GHSS8arxJovfwR96QzWDxODQ2z6DLhbGGzVL2xKhER2Qs9Hi1pqFAxMBA9j5uzUZgVezYOuYX3LH80ftUwdCdPQCBL0ePVtr4IN3lGYDYENZ2Lq0oub0p9gg09i5o8Q1AX3Amb3krXIrIlqWfQO6e4X5sdhwJoNe+ievem/bgCNZXaH9m1DAbtfm23B4yyGCj0HecmVoeHqMNkkDztVuMJtwo0gh63J5W2bDEweDRuch9iIiKyecoVA52LdsEGlT45+7ChGXII7lmJeEbMRpRKa6pkbRJw84/eqOhr+oxAn4iZiLLI95hXWN+ugMmf/52K9cHWF5x6QTbm8RQUE/RnWeJRHVMvqXdX/NjtzZBddN9yJH8/HLPjAwVYDBT4vLM7grWCzpJRtKUwKYoDk7HeLKxs2WXC+frhOE8QIYPpodczjMoi9W6ydfG4OLmqAh+QvVGh32rcVePhIfr32N0/zOSTTY2LE6oteC41TKQkPV7tGoxy7qJ+aFgCmy1EVJJ0OUvQv8TW3mGmzxAM6YEdPFSEbEjMrnbwFfRlWRLYGXtjpYZU5zN2ds0tvm8Z4tFqN+z5iC8WA/8t6TA65BB3lvTjjrDuh3lKrQniNkdYthiYqxO2csUOZSDu4REsHFAPJYqGIH/uAAQEMIy64uflATdnL1T6dSseq/K0WDuRdB9ruoXCSTTWmRNdQbRdfF2VH471r3djeBUv8X3LnqKYyYNDSHFJuLWoPUp6mT4j0K/2JFzJkrHgOVa0M2MPwaI9sO4RJ2KQLUjElalVlTvFPng8HkgtqU38xd/QLJ9Spwg7otbqz1JL9onFwH/Q48Xqlsgp7CzpxyH0F2x5wbkWpkjYVtdCT+ilBLXHxjdS40T/En9pOmr5m/6BmmFsKtocCKk9FedVu8mMuuk/n8fvbYLlLwa6lMfokzFSK+ryZm1rBIjuWYE4VZ6Nx1K7RMpIxfNdw1DZS9wHDUlgs0W4k6UPhd5gR+9Qk78LOBTpg52cIUjW7vtVLGxTULHvvJ4dD8GSE3stJwXnBhdWbksx91qY/0Rqyk6xGPh371agZZiHuLNkkKB+F3hoiIlYDCRrEX95Bmp7CvoMw6g8LuVG4RhPwbc5KS8PYWqLYLgIfqdmxasJVryQGlGVOOxukV18z3LHvSJGH7Xv2QaktDQ8XNoMIdkF/c/A+EdE4ow1nD6qf4DF7YJN/j7gWLgz/rDzL/Rk3eIuzkT7YsbXGAyLKxqt/yi1pDbPMamQ6J7lSHaU7r0W9j65mMXA/4nD4V4mrEfP1Qm7+CXKZKlnexs9E9OseNbE5LOcBkP/9gW7OgeI+wzDqD4eaLiKT0lsTfKLreicW/T7NDO5+kCVBwmnnEO/XIL7VSCa4pNwV2qWSH6JeLxtGKqZcViIX+MFuGNVhx6+xbaeISYvGXYM74ddnCFIVurZ8sbwEfRbWeJVH/Puq7Si9Xw+KjkI7lmO6Epg7EV1zqc0BouBksRrU1DJRdBRMopPTUSeYCXQLPdnopyxh7WYE9cS6LX2HqzhQShZkcTD6OIr6C8MYydxqrcJ6lwYql5JL1ajphIfkkMm4J7Uhprob09BaQt93vAbcF1qlUhuejxf3xkhruK+l3k0CGw0E+etcVPQ1AdY3a2IyYeKOAR3wBru00lWJwFHfgkU9lnz44Zi3VfgpipPrU/BrVm1lDtF2L83LnBpJ4uBf4m/jBkti8BN1FEySIFee/BFugSZ6O0GtDL6wBYz4l4cXRdfBku49A+xW9HUTdBfGMZeEjwJXGVlWxQrBgZPgxq/T79a3wG5Rfcrdzyr4venUqNEsorHnXUDUdXP9BmBvnV/xy2rmhH4b2+wuasZh4oU64cdr7mPO1mT2xhVUNxfzU8Qmi+5B1WeBfdhP0bX8BPcszzx6XzUQvss6pEQ8xGvHt1EVNQNXL92Ddf+zPU7ePjsFd5/z9qKJIuBP35Bz1a1RoCRT4udgiphapRVj6a24fM+9LbQsp3/xA8RE0/gPZ8E0N8lnUDvIFF/YRj7iKb0vB9fwciWKFUM1FZdq75Zosl3sbpHMfn3V/wpAWg4+wripGaJ5KPHy+19UdyMGYG5ms7DtXjpctYs7Rk29ypq8uFIukKdsIkDGlmLmE2o5yzuq2ZHWwyjLqqyFIjni2rBXyO4Zxmiy1kBPQ9YYtuwVDzbPgi1S+WHj4sWWu3fonOFd+5QlG8xFAv3RSFa+heWxmLgp0MYWtpF2FHSTyAa/36NH/bk8HGPhYuB2ZCzy0F84END+odYHOpb0gJfFBnGGuOHOgs4lcnWKFMM1KDM5FuqOxQt5cJwVM/jLLhfmeNSD6vVuo87ZaEERC3pifJm7BHoW3smbGsOwyusb2/GDMHw3tj8jE/+KeulXp+I0krte+dQAys+SQ2pylNMCxXcryzRIk/zebhqgUJOwo35aBIoeg1/jwO8gqthxKWseYO282LgS6xqHiT4pWQc50rTcZPjizyij2KoYlOn00nR6bjGSi7924ejmFBbuenoDGOdcUGJXuvxQJ0PllVNmWKgO1qsVtsiYT2uD8sHrfB+5U3QL8ehyq2bKAvp8WrXEJQ349TgwGYLcNMW98nXv8LWXkVNPmVYF9ITO95L1yLKEil4uLId8ig0wy1bnqG4psYJLh9XIsJJcL+yJDvqLHj0451VaS+xtpW/oP2fo8meH613xUr/zrLsuhj4bXMDo6ega7zLYugFLg+WTeIVTC0p/lkrFl11zLvHai79LPHqTNTKY+xMYYax1TgiZ5mROM6TQ2ySYsXAta+lFtTiPiYEi+5V3vjW+w1XeDoZySoZtxe1QwlPc2YERuKSTR+Y+QzL2poxQzCsO9Y+4md+yiJ/blHRq5Rih2D4dTkMW1j5bxw9Xm3siLyC+5UneTHUEhXUV4tQWSdq/+e45KmM4Rey5qm8/RYDU+5ifj1P4S8k/Tij9JAD4AoQGenfYG8nY38PZkZTFlOucRoMicXcP4xFvzZGxUpVUK1GTRTL5WHyU2mGsaro3BEQWhU1qlVB5Yp10GfObtz8yD0TbFXyi23omlfwezYnmtKYe0Ndc9vS7s5GDZP3WTMwTqUx5qz6vpJRVkrBi13DUMVb0N8MTM6mi3BbFfMX3mB77yImFwQdQvtg1zvpUkQWpH+8FI18xP3S/Pij9ToVbo6ZcAEzmhc0ec/QzKIpPBLXLPB84PuOZgYeTuuMQs2m4FTWTAy032Lg41n1UMDozTwLY8Jd6QIkk0Q8nl8WGuHPW6FoymLiRT6+p4wk4uO7V3j28C7u3v0zd3DnDsPYeP7qy3fx4OlLvP3wXerrZKtSXh3GtBbB8u51mmcYolTVNd5i+9BK8BLdq2zRwK3yLDyUWiQyXxoeLmuBEHdRfzMsOetOxhk11af1D7C0YzAcBfdqSBxDOmIpt8YlC4ve2lKxWYHeFQdi4+NUqSX1SD7TB0U8tcJ7NjsexdHhD0u8EaTh0sDc4tfwU4LQfNGtLNtixD6LgZ+3oLUJT9qCuu6DJc6dsS+JeLy+E/IptZeCMCEYcpKbBhIRkQ2Lv41V3YrCWTjOmZg/i4FZ9HRaEdE70T5AcJ8yxiFfY0w5y0+HJJdEPNw6FFX9TF8a7NdoAe6qckejt9jeM9jkGYKO4f2w8610KSLFpeBUd6X2IndAkR6b8Fx1tcAknOht/HkOhsat7EDseGmBaYH6+5hb3VX4Gn6KQ3lMvZ11WxnYYTHwG06NLGH0sj+faiOw54N0CZJRMp7tm4CG+RyEP3dl4oN2O7PqAG8iIiI5fMSBIaXkLwaqaA/JpGPd4Ce6T9nijAqTr/74JEMkBz1ebOyOEDOWtQc2+g0X1DzxO/UB1nQLNXmGoENwR6xT27aoZKWeY0a4uB+aHzfU/v2BBQ7BsLC4I+gl9/Yn/4sGBXrtxRepKSXFX/sdTQMNfKDj1wMnsvDhjd0VA6NPjEG9/E7iX0Z60RbFoKPcYV0Zenw8PRNN8+nEP3uFUmTyY6l9IiIiW5SMGzNrwkMwxpkcVRUD32B1U2X3JHYqOhqXeKYcySIet9cORBUzZgT61JmDW3bRH99gU6eCJp8Q7lS8H3a85n65pLC4I+itWGHLG50Oqe3s+jQ82dgToY6i+5UjOlRaYompwV+xt1cl5DTw8BCv1nuQlc9v7KsYmHoX8xt4CX8R6ccVeSIW4AHHDMWkPFyDLoUtOTPwxwemftel1omIiGzTs+WN4S0Y40yOioqBseemoKaX4B5likPehphwkKsMSA56vNrRHyVMnhGoQVCz+bhuT9thpz3Dpl5FTZ4hqAvugq1cMkwKSrw2C3UUG4OKY9YLqSG1SL2BiVVzCO5VroRg3D2pLSXF70VbH8Me6mh9y6LTdkvMVUyfHRUD9Xi9tReKOIh/GelFk7sF5tnV6JoF4s9jQiUD19XLFBYDiYjI1r3b0BK+gjHO5KimGPgeG7qVhbdi+xF7ImLGVfDTIZkvAVGLu6O8gV8eRfGtPQPX7XKt+kusbVfA5D0EncJ7Y/PTrNuri9TsO64ubI8QpWa5FRqGq2rrui9no7hiY7YDCrZdB0vsEJB8vLPBD2kDGv6G81m8T7PdFANTb81CTU/xLyL9OKDC9DvqW49vbVJvYXaEh+Dnr1y8up2G+s5fIiIie5J0vBv8BWOcyVFLMfDRbFRwFtyfLHFErmojcPSr1BaRydLwctcQlPcQ9TPDEtRsEW4nSZezR/pX2N7HjBmCIb9g+zvpWkRySbqK6TWVm+WWt9cBqG0Dsy9r68BJcK+yxK8Oppy2xEz+VFwZEwaN6DX8FGdUmXH7xyiQteykGPgI00sY/8RN59sEu9V0LL+1+mv5trfwd6BUcrTcobo3USIisjMPhiFAMMaZHFUUA+NxrHde8f3JEbeKGHuClUAyVwruLGqNYp5mzAiMiMRFtW0bZpIn+KNtQdNnCBbtjjWPOUOQZPRkPmoYuRrR4HhXwdCdb6SG1OI1VjU2dis3w+NcfhKuWGL29NeTGF/N0CKwH3qeyvqpSXZRDPx6fCTKGvuE2KEQ2i2+w9ljlpB6G3PqKLlHwM/JXn8Z1LbVAhER2Zmva1BTzi8cfxYDs3jJirnSnqxDtxCl9iF2QZVpN8AzQ8g8KXi+cziqeov6mGHJ2XQhbrMj/s0bbP+liMkFQYeifbH7vXQpIjMlHWyN7IJ+JkfcKwzD/vfqWreY9noH+oY7Cu/X/GhQYsoDqSVlvd3QyuCtWzR5B+K8FbyHq78YmHYNY6oGwkHwS8gomrBxiOL6YMtIu4s5tdyFvwel4lZtJqL4IYqIiGxZ6lWMCxOPcyYl1xBct+mZgYk42acsfBXZd8gVoW1n4TYnEJFZ0vBkRSuEuIn6mCHRIKD+VJzhyqWfpT3AH51CjP7O9984hnTEsmfStYjM8P63YGEfkyOB7TdCXWff6PFi86+oZMbDkYwTgF9vSk0pKhabGzgJ2hfErSja/P7QKraiU3kxMA13ZleDq+iXkGG80Gpb1p7sYl+ScLiTclODRXGuOBXXWAwkIiKb9h7bu4WYPBvmp7g0wY4XtlvtSrkWiTIKLc1yKTsMhz5LDRGZJAEPtgxBNT8TlwY75kaNEfvxlpMVMvAWW3sUMvk90TG8H3bxlGEySzJOdPcT9i85UnhMlMrOM/iEHZ2ChPcqR7QFuuPgd6kpJT3+HVUNXInqXPJXHPgg/bsspupi4IeDo1HV6CO9nVGo2SQWiizs9pCcgt+FcnEoMRInLfHGQEREpJhUPFzdH5V8Td937J8pjplXbPSM3O+XMKOOMvsPOwZWQt+9n6SGiEzx5+yXHghxFfexzOOEsqNPgx9dDZD6COt7hJp8qIhDoY5Y90q6FpGx0m5jVjUXYd8yP46ovVFlu96nnMWAPKJ7lSG63GgQeRjKT/H6hAODixv4nqNB6PCLVrPdiGqLgfq7M1DOlKfDuiLos/s9TxC2sKghyj0REEWbryV+v2LjGyMREZHdS3myCb3CnYVjnfHxQ8/dtlj0SsLFCZUQ5CS6JzPjGIquq+//aIHIVAm4tXoAKvubWLR3KIDmMy+yEGiU19jUsSC0op+nAXEq3h/bX/HbIBkv+fEadC6oFfYrs6Mpg9+eSg2pxdPpKC66VzniUxezriq/p4L+wQJ0CDdwyzPHUlb1O1RnMTD5IRY3NPHpcJ6+OMGTuSzu2kDLzgzM5lAE3Tc85od7IiKybfqHWFTPUzzWGR0tKs1+KF3Yhrxci9YBovsxMxpPhHZaj2esCZDJ9Hi1YyBKmbxHoDPKjz8HbhFogrTn2PxLmMkzBHXBXbGNh4qQUVJw748WCBT0JzmiKToaFy1xKq4FJR7tCj/BvcoRTeEhOKt4XScVl4YGG/g+44GwlsvwWvqX1kB9xcDEG5jXOC/chL+AzOPV5SRPicsCl3pa9jThbNkcUGXRI7DuS0REti0JJ34JFIxzpsW7y3HbelCWcgtLOhWFi+BezI1LmRE4yn0CyWSJuLmoK8r6mDgjUJMLzRZch40u3LcSL7G6XQGT9xB0KTUIe7hJIxnsOZY3cBX2JfPjjWpjjuGr1JJavF3X0uATeI2NtuIivJPaUcyn9WjsLm7/p3hFYNYN63pHV1cxMOEeNg2uAj+TT5HTosK8F9LFyJKezykNjfB3olzyDr8Ile26QEREdujrhgayFcM0pef8+DpjK1Jxc3oVuAvuw9w4+TXG4nupUjtExkrDq91DUTGHuH9lGl0OVBh3lkuDZfEa2/oUNfmUYadiw3E6TroUUUa+bUFDF3E/Mjv+dTHltNpKgXo8X9USOUX3K0OCBl5SeOu3aJwaVxnZBW2LEtDtgNW9p6unGJh6Fwub+Jn8Rv+fBKHXPrX9kdmGpEvjUUL4O1Eurs234AUf9hERka17+weqBzoKxzqj49ka223kSdm3kyNQ2lFwD+YmT0ds5mwgMkPM1uYIy2HqwT45UGfuHW5lI6snWNqukMnfE/1brccb6UpE6brV0+TViZlFFzYYh1U4i+XFunbILbhf8+ONjvsVLr3dGo4wL8P2h9RkL4hRd6R/Z0XUUQz8egXL+lVBgE78wzc8edD/MA+VyApJV6agvMkzOk1MqWm4zHXCRERk815hfb8K8BaNdcZGWwR99nyUrmu9/iwElvSTqQD69+hC8esJTgMiM3zdg+55BX3LkDjnQtVIzghUxjvsGVAcTqKfe2bRZEehVsvxgJOFKQMxG2ubOTEp/ThVX4KXUjtq8mJde2WKgf4tsErRBZ+fsLmNj7jtn+KBsv03WtVegf9l88XA1Ff7MbZ2gMmnRf0zfui6mzMDs0JiVhQDA3piD/cCIiIiFYi7OBnVsgvGOqPjgELtFuKWNW+g/GEjWvmKXruZcQhBx2X3wO/7ZLKYg/i1QnZx/8o0zqg09Tr3LleS/iW29C1h4rYKGhTosV35PcjIRiXizPCiim175dHhhCrfG5QpBnqifL+1uK/YYSspuLesFXIJ2xbEtTYWWukp0LZbDNR/woXF3VE6p6tMhcD/xKX+OnySmiDLSbs9A+W14t+JYvFoifVvpRdARERky/QPMT/CXTzeGRvnKpj7WLqutfl+ETMaB8NV9LrNibYgum3mQkAyw7dzmFzDxJO9nQui4ZRz+CZdipSUgKjFHVHCpP0cnRDQchkepUmXIvqvhJtY0DxI0GfkiBMi1qpzBosixUBdIbRfGgWl5vjrn61D51yCdoVxRLFxN2Ctbxk2WQxMfXscs9qGmDbNO7O41cNKPvKxuOi9XRU7hj39FMfUh9ILICIisnEvVzQweCPrjKNDlSVWuKBF/w77hpWX/8AQx1B0X/uIMwLJdN+OY1g5U4vxzigfeQncucaS9HiyvCl8hL+PzOKMEv224SULgvQ3CVGL0DKvqfuEZhKHSpit0u+sr9a1RZDons2JeyWMOREttSAz/WvsHFjKwNnFDshTZxQOKPRS5GBDxcBUfH14Emsiu6BGsKfJR8RnHncU67II17ldjOVEH8LAMJ3gd6F0NIg4wg3CiYhIJb6dxtiyToLxzvhoio7ABcWW2Jgg+R6Wty8Jf7kPDNHmR4eNr6RGiEwQfQoTa3iJ+1dmcSiAlrMvKzaDhTKSisfreqGUu+D3YkD8my/HE36NoL/o8WxNU3gI+okc8YmYiksJUlMq835DCxOL8hnEuyEW3FPi8V4cLs/uiOIegjZF8a2L3y7HS//WOll/MVCfiM/3jmHVhC6o6G+pgpEnKgzahIc8xktxqa8OY2rLwvIv9zEw3n2vS6+EiIjI9n3c0xehZh+o9iOa3Gj++1XrKFJ8uYglPcrCU/Q6zYlDUfTc9Mxql++QDYg7gzHl3cT9K9O4oML4c7Dur4pql4aHS5vAz6R9yz1Qutd6POEbCOEbDvTwF/QRGaIrhA5/3IJKa4FIOdsPeUT3bU4C2mCNAoeHxF+ajtqegvZEcQxA+WFHYO2nUVhnMTDtO15c2oE5g5qjfP4c0Fn6YIm/4gi/sEYYuvw0nsfzsY+8EvD22k7M6V8PRTwNO45bsWQvjT7rzuHZN/6OiYhIBVKvYUJJeR6eOviUwcRrWbtlecKlSajsKn59ZkWbH21WPpdaITLBp6MYW93EGYHZAtB0wQ3VfsG3LWl4vqUXQh1Ev6fM499qrSpPeSVjPMSEEHH/MDse9bDooYq/p35djRpyPMD8e/J0xAa5J/x/2I+RlXOI2xMkR9VxOPFF+rdWzCqKgWnJcfj69glunT+MLUunY8QvzVCpsD/csqQI+O84oVDjHhgzfzOO33yJ6CQWjYyiT0NKYhxiPjzH3cvHsWP5TIz88/cb4g9Xq/j9/ohHPpRu0B1jF+/E2Qfv8T0hGan8NRMRkY16vb4DSnrJsXeRBnk7rMPzLBoT3x0cjdp55Vn2/Pc4+lTHuMMfpFaITBB3ARMrm3hqsIMXKow/je/SpcgapOLe4qbI6Sz4fWUWjSdKdFjJQ0XsWcwWNDCl7xiSXINwVc3fS/XXMSpY5r0W83aGrLt/JN/E7/V9xG2J4lAKYy/axhJTxYqBKd/f49H9e7h379+5jhM7V2L2+JH4tf8v6FqnGAJcFNpsU/Zo4Z67DOo274Q+wyZi/vp9OHf7xz3dv4/7j98hNknFo4A+EdEvf9znT7/P/8vtG5dx/tQhbFo0Gb92bY+WTeqjdtmC8LWZ368UjTP8QiojokEztO7QA4PGTseCVVtx4NRl3Bbc9z/z42f04hPiUlhNJCKiLJL2Aus75oNGNMYZG+dgNJ9208JLaRNweVZjBCrx0NCvGZY94lEhZIbPuzGsouEzRP4Zd9ScfQfWtB0n/Zcebzd3MPkwg4B2m8AzKO1T8un+8i91/W/Clqr8wUEMDvStZOJS/XQiZzEw7iQiI/zE7Yii9UO53ids5kAo+YuBKdcxrU5t1KxRDVWK5Yank40VgoyOBk5eeVGiWgQaNm+LLoMnYeHGg3ioolH+867uiKhVE9WrVkCIv5uCh7fYenRw8w9G+ZoN0Lx9d/Tp0xf9+vfH5idZu8SKiIjsUPQB9Ckk02cwh2IYdNBC611SX+JAZAPklrsQqHFFYPHmWHybZRgyg/4BFtb1EPexzOKcB9Uiz+KbdCmyRqm490dLFPEw4b1T444CLZfhIWcI2pk0PFzUCN6iPiFDcg1W//72CTfmo2mg+P5Nimc9zLsrw0O/75cws74RhcA/V1O0W43HNvQeIHsx8OG4/IIfjL1Fi1y9jqpjH5CEXWii1LRne0neHthj7buHEhGR6sQcGo1aOWUqCLqWQN91UYiVri2/FLw6+hvahXvKM6Px79F5oGj733HmE2ftkzm+4OiIMnAR9bFM44xKU67/6OVkC16ubgE/4e8xs2hRdOAhfJauQ3Yg5Sm29C2pyGGYjrmqYtAxe9hQ4DVW1Ddx2wVRHEpi+AnzHrt8u74c3YsbdziU1r0Upt6VLmAjZC4Gfsb29gqdpGNj8Wm+ShWbyX45OABFteJ7ZAyLc1h3rLrLs+KIiMjS0vB0Q3cUNnFj/J/inB91hqzB5Xdyzq7T49PFZehTOT983eQ5+OTvcQishv4rLuEjZ+uQmRL2NIGvo7ifZRTX3OXQZuo57hFoU1LwYEVnlPAQ/04zitavPPqdtJVFgmQu/evdGFs3lwIr53TI32IWzsVIDalcwoGOMs6u9ES1cUdNK8onvsTZlUPQIMS44qRjweaYeeKjdBHbIWsxMO3FNgwo5Sr8Adlb3OsuxjPp52Kz0u5jYcvc8j+ht7N4le+LVTfs5J2ciIiszCccn9wCRdzEY5TxcUFwRD8sOPwIsWZNtEvB53tHsWJMexR2ErVjbnTwLd4co3c8hm1s403WTY+TLRwF/SyjOMCnaCvMOPoa3KXSFunx+I+m8BH+bjOOX5/LP/412YOYo0NRxVvcD8yLN+r/HmU/+4umXMTQKgGyFVU1gfUx57Yx77xp+BK1A1M7V0QuIz+T6HyLo++O1zb5Ny9jMTANN6c1QLBsHzZtO07NDtr+UoAnc1HZhCegzD+To1okTrEWSEREWSYRNxe2RG6deJwyJRqdM/yKN8ag+btw7v47fM/0M7ceSbHv8fj6CeyYPwQtK+SDp6uDQg8cHRHSdg5Of+DXcZLLW6xqaNxMEd9a43H4A6ek2rZUPN7QGyWM/H7r3vqgzRwgQOZIQ9T4YtAK+oD5KYRBp1Sx6ZjB4i6MR1kZHw5q8rTEoqi4DB7GpCHhwwOc2zEfg5qURE5nrfA6GScPuu2x0J7KCpCxGPgG88u7CH5A9pk84x5LPxfblbC/JdwE98YYF89Gy21/ligREdm4zzg9twPC3cVjlVlxL4g6AyKxYMNBXLh+Azdv3cHdu3f/ys2rF3D62B6snj0GvVuWRoAiswD/Gw0csoeizW/H8Iabs5GsYrG/e5Cgz4nijNyVumPNQ3ZCdUjDgyVN4GfEtkm+Pc9yNqhd+IL1dZ2FfcDsZG+Gbcpt0mulYnGgV17xz8PUBNZDt7FLsPvSdUTdvI07d27jZtR1XD26BYsmDUTDEHfxvzMkGmcEdduLaOnV2yL5ioH6s2jPWYFScmPAadtflPJpQbjg3hhj49/1MLhjIBERZb1EXJtdD0Fy7SH472i0cHBygZuHJ7y9vf+KZ3ZXODvqLLDliBMKNo7EnidcFEzK+LCwJByEfe+fcSs7HIdsb+soypAeL7f9giIGza72QNnfX0n/jtTtOobmEfUB86OtvBQfpFbsSlIU5jX0Ff5MzInG0Rmu7h7w8soBd1dnOGrNPFwtexn03/DA5rchka8YGLsREVxS+p/k64W9n6Sfi83S48bwfOL7Y4yIFuXn8wMBERFZi2hc3zQajQsbd0qe9cYZBau2x5hlR/HMvlZUkaXFn0JkyzB4CPvhn3FFwbq/YsMDu9nly87o8Wb3UFQu6JlBUdgNRdvMxEm7m9Flp+IOonuAqB+YG1fUWvhEasQOJZxHZAXrXXHqFtIIo7Y/UcV+jrIVA/V3Z6Kioks/bCU+qDH2IN7Z/DY1b7C+XaDg/hjjkgsDLnG/GCIisi5x9zahXylbLwi6oNSve1kEJMuJPo4x5V3hoPl3X9TBpfhA7OOMQPWLv4Tptb3g+FMf0MK5UDdsfsm9Su3Gy3XokPvf/cD8uJQegn3vpTbs1Zv1+KWYFRYEHYvh10NfpRdp+2QrBiZdGIGiP70p2mE0hdDngC2vHP+vZ1hS37iNkhlBgtphi83PEiUiIlVKeoLd49qhSkFP2U7ws0Qc85VG/W6jseDUW+7LRZYXfRWH18/FqO5t0ap5EzRs0huRf+zFpU8sAtmN1Le4vm8xRrVvgMbNWqJNh+GYt+0sHnJGoH35thNtPMXjlOnxQoMlj23yZFrZfbuA6XXlXzJsUjT+qNBjHo6/VNfMb9mKgak3JqGMUnvQ2FLcG2PDZ+mHYtM+YXNrb/E9MgbGF1WHbAUXCRMRkTX7dnsLRjYuBj+r3+5Fi5xVB2DV5ffg0QyU5VLi8S3mCz5+4rJguxX3EV9iviGeRwfbqWsYJOsyYS2y5+uBvWqYVySXhCgsbJXHAvsOZxCXgmgwageeqfDpo3x7BuI7jg0uYd+nzzrlR4MlKlrf/2Qx6gWaubmmHcezwmBse8KvK0REZBsSnh7A9D4NUTLImpYP6+BfsQdG/74RR6+/VcUePUREpA6fd3ZBAZlWR3pXHort/O4oEIPra8agdZkAOAl+borFyR/FGvTDqqjv0utQHxmLgT8kPcOpFcPRrEx5VKxSHbXqNkLzNh3Rc+hE/L5yG7Zu3YItmzdjs5Vly9at2LZhOebPmIBhfTqheZ3KqFKtOmrWqo3atTNLXTRu0Q6d+8/CtgvPoLbZ4Z9u7casntVRtkJlVKvx33uuiRrVq6JKreboNmQyFixehlXrNgl/traVH/3zR1/Y/PsodG1QFqXLVULVmn//XWeSWj9+LtWqonKd1vhl+DSsu87HOkREZGP03/H8zFqM71gVBTwscQrwv6OB1tEVHrmKofafS+92XMTTaH45IiIia5SCOwubIqdwPDM0jvAp0hBzrsRL1ySR5LcXsGpUa5QNclH2s4lDdgSF10TH6XtwT+VL/+UtBhIRERGRKiS/u4xdC0egfbWgDE7PlCsauOUpj1bDF2DnpWeI4WaARERkE/4sCHZBaW8TVtRpfVCm6+848ZoPvQwWcxO7lkaiV9MK8NMKfqYmRudTGNU7jMSifVF4ZydL/1kMJCIiIqJ0pUQ/x5W9SzGuT2e0rF8NZYsXQYHcOeEi+DCdaTSuCMhXCKHFSqNC9bpo0qYzhs5YiT3n7uDFpzikcNd0IiKyQXEvzmLtxF5oXDY/vNxd4KgTFwe12T3hF5gPhesOwILDDxGTJl2AjJKW+Bn3j6/E+E5N0SCiOiqWLYGiIfmRx0Mn/Ln/LzoP5MkfgqIlyqDCX6tZm6Hf1NU4fOMlYuysJstiIBEREREZLDX+I55cPYzNS6djZK+2aFSzPMILFUKhdBOOGm0HYfqqddi0bRf2nbmD1zFJPC2RiIjUJ+ENru77AxN6NECV8qUQXvi/Y2Fp1Ok4BDNW78PFB+8QJ/3nJJOU73j/8BIO7N6OzetXY+XKlT+yAovn/YYp4ydhxtyFWLZ6PTZv340D527h2YdYJNp5IZbFQCIiIiIyWVpqEhK+fUNsTAyio6P/kZjY74iLTwJX/RIRkV3RJyE+7s+x8cdYGBOLb98SOfudrAqLgURERERERERERHaCxUAiIiIiIiIiIiI7wWIgERERERERERGRnWAxkIiIiIiIiIiIyE6wGEhERERERERERGQnWAwkIiIiIiIiIiKyEywGEhERERERERER2QkWA4mIiIiIiIiIiOwEi4FERERERERERER2gsVAIiIiIiIiIiIiO8FiIBERERERERERkZ1gMZCIiIiIiIiIiMhOsBhIRERERERERERkJ1gMJCIiIiIiIiIishMsBhIREREREREREdkJFgOJiIiIiIiIiIjsBIuBREREREREREREdoLFQCIiIiIiIiIiIjvBYiAREREREREREZGdYDGQiIiIiIiIiIjITrAYSEREREREREREZCdYDCQiIiIiIiIiIrITLAYSERERERERERHZCRYDiYiIiIiIiIiI7ASLgURERERERERERHaCxUAiIiIiIiIiIiI7wWIgERERERERERGRnWAxkIiIiIiIiIiIyE6wGEhERERERERERGQnWAwkIiIiIiIiIiKyEywGEhERERERERER2QkWA4mIiIiIiIiIiOwEi4FERERERERERER2gsVAIiIiIiIiIiIiuwD8f6vXA84aO99dAAAAAElFTkSuQmCC;strokeWidth=2;" parent="1" vertex="1">
          <mxGeometry x="20" y="1040" width="317.09" height="65" as="geometry" />
        </mxCell>
      </root>
    </mxGraphModel>
  </diagram>
</mxfile>
